# xmcd
#
# Track frame offsets: 
#        150
#        20250
#        39788
#        61389
#        82612
#        96346
#        113177
#        130318
#        151775
#        171607
#        195052
#        209006
#        219027
#
# Disc length: 3188 seconds
#
# Revision: 2
# Processed by: cddbd v1.5.2PL0 Copyright (c) Steve Scherf et al.
# Submitted via: ExactAudioCopy v0.99pb4
#
DISCID=9e0c720d
DTITLE=Susan Tedeschi - The Best of Susan Tedeschi - Episode One
DYEAR=2005
DGENRE=Blues
TTITLE0=Rock Me Right
TTITLE1=Alone
TTITLE2=It Hurt So Bad
TTITLE3=Don't Think Twice, It's Alright
TTITLE4=You Need To Be With Me
TTITLE5=In The Garden
TTITLE6=Little By Little
TTITLE7=Just Won't Burn
TTITLE8=Gonna Move
TTITLE9=Looking For Answers
TTITLE10=Rock And Roll [featuring Double Trouble and Kenny Wayne Sheph
TTITLE10=erd]
TTITLE11=You Can Make It If You Try [LIVE]
TTITLE12=Love's In Need of Love Today [LIVE]
EXTD=
EXTT0=
EXTT1=
EXTT2=
EXTT3=
EXTT4=
EXTT5=
EXTT6=
EXTT7=
EXTT8=
EXTT9=
EXTT10=
EXTT11=
EXTT12=
PLAYORDER=
